<?xml version="1.0" encoding="UTF-8"?>
<!DOCTYPE svg PUBLIC "-//W3C//DTD SVG 1.1//EN" "http://www.w3.org/Graphics/SVG/1.1/DTD/svg11.dtd">
<svg version="1.1" xmlns="http://www.w3.org/2000/svg" xmlns:xlink="http://www.w3.org/1999/xlink" x="0" y="0" width="554" height="486" viewBox="0, 0, 554, 486">
  <g id="Layer_1">
    <path d="M187.214,429.642 C186.218,429.505 185.251,429.115 184.392,428.49 C181.647,426.439 181.022,422.611 183.034,419.847 C183.493,419.193 194.87,403.89 222.097,406.38 C228.952,406.859 290.817,411.712 306.745,430.941 C308.952,433.607 308.581,437.542 305.925,439.74 C303.259,441.956 299.313,441.576 297.106,438.919 C287.663,427.513 245.437,420.56 221.081,418.841 C201.188,417.025 193.435,426.81 193.112,427.23 C191.687,429.095 189.401,429.955 187.214,429.642" fill="#DF542F"/>
    <path d="M312.214,431.81 C309.772,431.468 307.663,429.701 307.019,427.162 C305.427,420.912 267.917,415.912 221.921,418.841 C218.435,419.056 215.495,416.449 215.28,413.001 C215.065,409.564 217.683,406.576 221.12,406.361 C248.786,404.593 313.718,402.787 319.147,424.076 C320.007,427.435 317.985,430.833 314.626,431.693 C313.815,431.888 312.985,431.927 312.214,431.81" fill="#DF542F"/>
    <path d="M194.108,429.642 C195.104,429.505 196.081,429.115 196.94,428.49 C199.675,426.439 200.3,422.611 198.308,419.847 C197.829,419.193 186.452,403.89 159.235,406.38 C152.37,406.859 90.515,411.712 74.577,430.941 C72.39,433.607 72.751,437.542 75.417,439.74 C78.073,441.956 82.019,441.576 84.226,438.919 C93.679,427.513 135.886,420.56 160.241,418.841 C180.144,417.025 187.897,426.81 188.21,427.23 C189.636,429.095 191.94,429.955 194.108,429.642" fill="#DF542F"/>
    <path d="M69.118,431.81 C71.55,431.468 73.659,429.701 74.304,427.162 C75.905,420.912 113.425,415.912 159.401,418.841 C162.897,419.056 165.827,416.449 166.052,413.001 C166.276,409.564 163.649,406.576 160.212,406.361 C132.546,404.593 67.604,402.787 62.184,424.076 C61.335,427.435 63.347,430.833 66.706,431.693 C67.517,431.888 68.347,431.927 69.118,431.81" fill="#DF542F"/>
    <path d="M334.899,264.105 C308.874,129.144 250.632,67.064 189.313,66.673 L189.313,66.634 C189.079,66.634 188.845,66.664 188.62,66.664 C188.386,66.664 188.151,66.644 187.927,66.654 L187.927,66.693 C126.608,68.158 69.47,131.244 45.827,266.654 C29.753,358.685 79.245,431.83 191.823,430.853 C304.392,429.857 352.585,355.843 334.899,264.105" fill="#FFFFFE"/>
    <path d="M188.522,70.931 C188.366,70.951 188.19,70.97 188.034,70.97 C122.819,72.533 71.237,145.951 50.046,267.376 C42.097,312.855 50.807,353.47 74.577,381.732 C99.226,411.068 138.991,426.585 189.577,426.585 L191.784,426.576 C243.2,426.126 283.347,410.033 307.878,380.062 C331.374,351.351 339.479,310.462 330.7,264.915 C307.351,143.88 254.499,71.371 189.284,70.951 C189.108,70.951 188.933,70.941 188.757,70.921 C188.679,70.921 188.601,70.921 188.522,70.931 z M189.577,435.13 C136.394,435.13 94.362,418.568 68.024,387.24 C42.614,357.005 33.239,313.919 41.618,265.912 C63.513,140.521 117.917,64.535 187.214,62.435 C187.419,62.396 187.634,62.376 187.839,62.376 L188.991,66.634 L188.737,62.376 C188.991,62.357 189.274,62.376 189.548,62.406 C259.05,63.001 314.948,138.08 339.089,263.294 C348.366,311.38 339.626,354.759 314.499,385.482 C288.308,417.484 245.905,434.652 191.853,435.13 L189.577,435.13" fill="#1A1919"/>
    <path d="M239.675,234.74 C239.89,245.482 216.179,258.675 197.028,259.066 C177.849,259.447 153.796,246.888 153.571,236.146 C153.366,225.404 177.058,216.38 196.228,215.99 C215.397,215.599 239.46,223.998 239.675,234.74" fill="#F1A948"/>
    <path d="M197.526,220.248 L196.315,220.267 C176.726,220.658 157.722,229.642 157.849,236.058 C157.995,242.767 177.351,254.798 196.169,254.798 L196.94,254.789 C205.319,254.623 215.261,251.732 223.513,247.064 C231.804,242.376 235.456,237.533 235.397,234.818 C235.271,228.587 216.53,220.248 197.526,220.248 z M196.169,263.353 C175.954,263.353 149.587,250.208 149.294,236.224 C149.011,221.624 176.394,212.113 196.14,211.712 L197.526,211.703 C216.315,211.703 243.649,219.876 243.942,234.642 C244.089,241.361 238.171,248.587 227.722,254.505 C218.288,259.837 206.843,263.138 197.116,263.343 L196.169,263.353" fill="#1A1919"/>
    <path d="M170.671,104.447 C170.671,104.447 161.003,60.56 190.808,33.06 C223.464,2.904 256.335,-0.3 279.294,17.327 C294.362,28.89 270.671,42.796 270.671,42.796 C270.671,42.796 283.435,41.263 282.878,54.564 C282.448,64.955 272.292,68.998 272.292,68.998 C272.292,68.998 284.558,69.505 287.927,82.24 C293.698,104.095 270.085,104.447 270.085,104.447 C243.308,92.826 212.38,74.31 170.671,104.447" fill="#AB2430"/>
    <path d="M216.179,83.802 C234.577,83.802 250.671,91.048 264.87,97.455 C266.901,98.373 268.894,99.261 270.866,100.13 C273.835,99.876 279.831,98.626 282.702,94.818 C284.733,92.123 285.095,88.255 283.796,83.333 C281.257,73.763 272.214,73.275 272.116,73.275 C270.104,73.187 268.425,71.703 268.083,69.72 C267.741,67.728 268.835,65.775 270.71,65.033 C271.003,64.906 278.308,61.81 278.601,54.388 C278.718,51.83 278.21,49.945 277.106,48.802 C275.573,47.191 272.917,47.025 271.843,47.025 C269.831,47.269 267.604,46.068 266.96,44.154 C266.296,42.24 266.755,40.14 268.493,39.115 C272.8,36.566 279.743,30.804 280.026,26.156 C280.065,25.472 280.183,23.402 276.696,20.716 C254.343,3.568 222.78,9.349 193.708,36.195 C172.663,55.619 172.692,84.339 173.933,97.064 C187.956,88.158 201.833,83.802 216.179,83.802 z M170.671,108.724 C170.153,108.724 169.636,108.636 169.147,108.451 C167.8,107.933 166.804,106.781 166.491,105.365 C166.081,103.49 156.667,58.763 187.897,29.915 C207.487,11.849 228.151,2.298 247.663,2.298 C260.124,2.298 271.979,6.322 281.901,13.939 C287.78,18.45 288.767,23.363 288.562,26.693 C288.21,32.249 284.362,37.152 280.534,40.697 C281.491,41.273 282.429,41.986 283.278,42.874 C286.062,45.775 287.36,49.759 287.155,54.74 C286.921,60.443 284.44,64.623 281.677,67.513 C285.983,69.935 290.212,74.173 292.058,81.146 C294.069,88.763 293.21,95.111 289.499,100.003 C283.112,108.431 270.681,108.724 270.163,108.724 C269.47,108.822 268.952,108.626 268.386,108.373 C266.081,107.376 263.737,106.322 261.364,105.248 C247.292,98.919 232.741,92.357 216.179,92.357 C201.726,92.357 187.663,97.445 173.171,107.923 C172.429,108.451 171.55,108.724 170.671,108.724" fill="#1A1919"/>
    <path d="M194.118,269.076 C194.118,269.076 253.659,359.535 196.735,359.535 C168.269,359.535 167.614,336.908 174.079,314.3 C180.554,291.683 194.118,269.076 194.118,269.076" fill="#AB2430"/>
    <path d="M194.323,277.435 C189.938,285.58 182.438,300.619 178.19,315.482 C173.796,330.833 173.972,342.259 178.698,348.529 C182.067,353.001 188.132,355.257 196.735,355.257 C206.14,355.257 212.116,352.689 214.968,347.376 C223.366,331.8 205.437,295.892 194.323,277.435 z M196.735,363.812 C185.3,363.812 176.94,360.404 171.872,353.675 C165.378,345.062 164.733,331.419 169.968,313.119 C176.521,290.228 189.89,267.806 190.456,266.869 C191.208,265.609 192.565,264.828 194.03,264.798 C195.358,264.72 196.882,265.482 197.683,266.712 C201.647,272.748 236.042,326.302 222.497,351.439 C218.073,359.642 209.401,363.812 196.735,363.812" fill="#1A1919"/>
    <path d="M165.261,185.482 C163.64,207.718 144.284,224.427 122.058,222.796 C99.821,221.165 83.112,201.83 84.733,179.593 C86.374,157.357 105.71,140.648 127.937,142.279 C150.183,143.9 166.882,163.255 165.261,185.482" fill="#FFFFFE"/>
    <path d="M124.948,146.439 C106.169,146.439 90.378,161.146 89.001,179.906 C87.546,199.759 102.526,217.083 122.37,218.529 C142.351,220.033 159.558,204.818 161.003,185.169 C162.448,165.326 147.478,147.992 127.624,146.537 C126.726,146.478 125.847,146.439 124.948,146.439 z M125.046,227.181 C123.952,227.181 122.858,227.142 121.745,227.064 C97.194,225.267 78.679,203.822 80.476,179.281 C82.253,154.974 103.503,136.126 128.259,138.011 C152.8,139.808 171.315,161.244 169.519,185.794 C167.819,208.998 148.288,227.181 125.046,227.181" fill="#1A1919"/>
    <path d="M155.681,185.462 C154.597,200.267 141.726,211.38 126.94,210.296 C112.146,209.212 101.022,196.341 102.116,181.556 C103.19,166.761 116.062,155.638 130.847,156.722 C145.651,157.806 156.765,170.677 155.681,185.462" fill="#1A1919"/>
    <path d="M216.071,185.482 C217.692,207.718 237.048,224.427 259.284,222.796 C281.511,221.165 298.21,201.83 296.589,179.593 C294.968,157.357 275.622,140.648 253.386,142.279 C231.14,143.9 214.45,163.255 216.071,185.482" fill="#FFFFFE"/>
    <path d="M256.374,146.439 C255.495,146.439 254.597,146.478 253.698,146.537 C233.854,147.992 218.894,165.326 220.339,185.169 C221.706,203.939 237.507,218.626 256.296,218.626 C257.185,218.626 258.073,218.607 258.972,218.529 C278.815,217.083 293.776,199.759 292.331,179.906 C290.964,161.146 275.163,146.439 256.374,146.439 z M256.296,227.181 L256.296,227.181 C233.044,227.181 213.503,208.998 211.804,185.794 C210.017,161.244 228.522,139.808 253.073,138.011 C277.839,136.175 299.079,154.984 300.856,179.281 C302.644,203.831 284.128,225.267 259.597,227.064 C258.483,227.142 257.39,227.181 256.296,227.181" fill="#1A1919"/>
    <path d="M225.651,185.462 C226.735,200.267 239.597,211.38 254.401,210.296 C269.187,209.212 280.3,196.341 279.226,181.556 C278.132,166.761 265.261,155.638 250.476,156.722 C235.681,157.806 224.577,170.677 225.651,185.462" fill="#1A1919"/>
    <path d="M361.53,322.953 C339.46,332.503 315.104,330.951 297.575,316.615 C270.808,294.701 268.278,249.046 294.294,217.269 C309.89,198.216 362.028,158.685 391.452,170.736 C405.759,176.615 410.134,189.642 394.792,204.007 C394.792,204.007 414.323,199.808 416.765,217.962 C419.206,236.136 400.71,244.798 400.71,244.798 C400.71,244.798 423.894,247.318 414.489,268.998 C408.747,282.249 393.854,283.246 393.854,283.246 C393.854,283.246 397.331,300.921 384.44,309.427 C371.569,317.923 361.53,322.953 361.53,322.953" fill="#FFFFFE"/>
    <path d="M393.542,278.978 C393.659,278.978 394.304,278.919 395.31,278.714 C399.519,277.884 407.097,275.306 410.573,267.298 C412.79,262.191 413.054,258.109 411.374,255.169 C408.923,250.931 402.507,249.31 400.241,249.037 C398.337,248.822 396.804,247.367 396.511,245.482 C396.198,243.587 397.175,241.732 398.903,240.921 C399.05,240.853 414.528,233.431 412.526,218.529 C411.999,214.662 410.573,211.927 408.142,210.189 C403.327,206.742 396.003,208.128 395.69,208.197 C393.659,208.509 391.892,207.689 391.003,205.99 C390.104,204.29 390.456,202.201 391.862,200.892 C397.966,195.169 400.856,189.437 399.987,184.74 C399.245,180.638 395.632,177.083 389.831,174.701 C384.519,172.513 377.888,172.181 370.134,173.705 C342.644,179.115 308.815,206.283 297.604,219.974 C273.386,249.544 274.616,292.298 300.28,313.314 C312.419,323.236 328.474,326.859 345.495,323.509 C350.319,322.562 355.144,321.048 359.616,319.134 C359.714,319.076 369.597,314.105 382.087,305.853 C392.37,299.076 389.685,284.212 389.655,284.056 C389.421,282.865 389.733,281.615 390.466,280.648 C391.101,279.818 392.038,279.251 393.054,279.056 C393.21,279.017 393.386,278.998 393.542,278.978 z M294.87,319.925 C265.612,295.97 263.835,247.718 290.983,214.564 C304.558,198.001 339.948,170.931 368.483,165.326 C377.907,163.47 386.179,163.958 393.073,166.79 C401.667,170.306 407.106,176.136 408.405,183.197 C409.147,187.21 408.757,192.933 404.196,199.681 C407.126,200.169 410.28,201.205 413.122,203.246 C417.507,206.38 420.163,211.146 421.003,217.396 C422.673,229.876 416.159,238.412 410.417,243.373 C413.503,244.925 416.667,247.279 418.737,250.853 C421.901,256.263 421.784,262.943 418.415,270.697 C413.708,281.556 403.854,285.423 398.522,286.761 C398.815,293.324 397.771,305.755 386.794,312.992 C373.854,321.537 363.854,326.556 363.229,326.878 C357.976,329.134 352.585,330.833 347.155,331.898 C327.585,335.746 309.011,331.498 294.87,319.925" fill="#1A1919"/>
    <path d="M7.604,313.246 C4.089,289.476 11.901,266.341 30.29,253.128 C58.405,232.962 103.151,242.357 127.097,275.716 C141.462,295.736 166.12,356.322 146.843,381.615 C137.468,393.9 123.757,394.759 113.854,376.214 C113.854,376.214 112.849,396.165 94.675,393.822 C76.491,391.458 72.927,371.361 72.927,371.361 C72.927,371.361 64.479,393.099 45.973,378.392 C34.675,369.408 37.565,354.759 37.565,354.759 C37.565,354.759 19.597,353.539 14.733,338.88 C9.85,324.251 7.604,313.246 7.604,313.246" fill="#FFFFFE"/>
    <path d="M149.499,360.257 C151.413,332.308 133.942,292.581 123.62,278.197 C101.335,247.162 59.733,237.259 32.78,256.605 C20.046,265.736 12.389,280.316 11.218,297.63 C10.886,302.533 11.081,307.581 11.823,312.63 C11.823,312.591 14.069,323.412 18.786,337.533 C22.702,349.33 37.712,350.492 37.858,350.501 C39.089,350.58 40.222,351.185 40.964,352.162 C41.706,353.138 41.999,354.369 41.764,355.599 C41.745,355.687 41.628,356.331 41.569,357.347 C41.276,361.634 41.804,369.623 48.639,375.042 C53.005,378.519 56.882,379.837 60.182,378.939 C65.847,377.415 68.913,369.886 68.952,369.808 C69.636,368.031 71.433,366.927 73.327,367.103 C75.231,367.289 76.784,368.724 77.136,370.599 C77.253,371.302 80.456,387.669 95.222,389.574 C99.108,390.081 102.116,389.398 104.421,387.513 C109.001,383.744 109.558,376.312 109.577,376.009 C109.714,374.095 111.091,372.474 112.956,372.064 C114.812,371.673 116.726,372.513 117.624,374.193 C121.569,381.576 126.354,385.853 131.11,386.234 C135.261,386.576 139.646,383.998 143.454,379.017 C146.931,374.447 148.972,368.138 149.499,360.257 z M2.682,297.044 C4.04,277.142 12.956,260.306 27.8,249.662 C58.522,227.63 105.583,238.412 130.573,273.216 C143.054,290.619 160.017,331.83 158.034,360.833 C157.39,370.414 154.772,378.275 150.251,384.193 C144.616,391.585 137.565,395.335 130.417,394.759 C126.354,394.427 120.925,392.572 115.593,386.419 C114.362,389.124 112.546,391.908 109.841,394.115 C105.671,397.542 100.378,398.861 94.128,398.06 C81.628,396.439 75.085,387.943 71.784,381.087 C69.489,383.665 66.394,386.126 62.409,387.201 C56.354,388.841 49.929,386.996 43.317,381.732 C34.05,374.388 32.878,363.861 32.966,358.353 C26.54,356.947 14.811,352.718 10.671,340.238 C5.768,325.521 3.503,314.564 3.405,314.095 C2.546,308.216 2.311,302.572 2.682,297.044" fill="#1A1919"/>
    <path d="M445.192,475.287 C444.519,475.189 443.874,474.935 443.288,474.505 C441.442,473.128 441.022,470.55 442.37,468.685 C442.692,468.246 450.349,457.933 468.698,459.603 C473.327,459.935 515.017,463.206 525.749,476.165 C527.233,477.962 526.989,480.619 525.202,482.103 C523.405,483.587 520.749,483.333 519.265,481.546 C512.888,473.861 484.44,469.173 468.015,468.011 C454.616,466.79 449.382,473.382 449.167,473.665 C448.21,474.915 446.667,475.501 445.192,475.287" fill="#DF542F"/>
    <path d="M529.44,476.751 C527.8,476.517 526.374,475.326 525.944,473.626 C524.87,469.408 499.577,466.029 468.581,468.011 C466.237,468.148 464.255,466.39 464.108,464.076 C463.952,461.751 465.72,459.74 468.044,459.603 C486.687,458.412 530.456,457.191 534.108,471.537 C534.694,473.802 533.327,476.087 531.062,476.673 C530.515,476.8 529.968,476.83 529.44,476.751" fill="#DF542F"/>
    <path d="M449.841,475.287 C450.515,475.189 451.159,474.935 451.745,474.505 C453.591,473.128 454.011,470.55 452.663,468.685 C452.351,468.246 444.675,457.933 426.335,459.603 C421.706,459.935 380.007,463.206 369.284,476.165 C367.8,477.962 368.034,480.619 369.841,482.103 C371.628,483.587 374.284,483.333 375.769,481.546 C382.146,473.861 410.593,469.173 427.019,468.011 C440.417,466.79 445.651,473.382 445.866,473.665 C446.823,474.915 448.366,475.501 449.841,475.287" fill="#DF542F"/>
    <path d="M365.593,476.751 C367.233,476.517 368.659,475.326 369.089,473.626 C370.163,469.408 395.456,466.029 426.452,468.011 C428.806,468.148 430.778,466.39 430.925,464.076 C431.081,461.751 429.304,459.74 426.989,459.603 C408.347,458.412 364.577,457.191 360.925,471.537 C360.349,473.802 361.706,476.087 363.962,476.673 C364.519,476.8 365.065,476.83 365.593,476.751" fill="#DF542F"/>
    <path d="M544.733,363.714 C530.837,291.693 503.327,250.492 471.97,236.322 C473.562,226.39 476.237,221.83 476.237,221.83 C468.718,220.941 462.419,226.703 458.366,231.869 C457.497,231.693 456.628,231.566 455.769,231.429 C457.858,226.585 460.612,221.83 460.612,221.83 C453.864,224.076 449.479,227.455 446.608,230.658 L446.608,230.619 C446.452,230.619 446.286,230.638 446.14,230.638 C445.983,230.638 445.817,230.628 445.671,230.638 L445.671,230.658 C445.28,230.658 444.899,230.706 444.519,230.716 L447.517,221.83 C439.89,222.611 415.261,239.447 415.261,239.447 L415.261,239.456 C386.354,256.205 361.813,297.181 349.899,365.433 C339.069,427.464 372.419,476.771 448.288,476.107 C524.167,475.443 556.647,425.55 544.733,363.714" fill="#FEDA2E"/>
    <path d="M441.062,228.47 C434.187,231.927 424.382,238.06 417.507,242.748 C387.194,260.345 364.665,304.095 353.835,366.126 C348.542,396.439 354.333,423.49 370.124,442.279 C386.53,461.79 413.034,472.103 446.784,472.103 L448.259,472.103 C482.575,471.8 509.333,461.107 525.651,441.165 C541.276,422.074 546.647,394.837 540.808,364.466 C528.171,299.017 503.151,254.798 470.319,239.955 C468.679,239.212 467.731,237.464 468.015,235.677 C468.591,232.142 469.284,229.232 469.978,226.908 C466.599,228.539 463.64,231.624 461.511,234.349 C460.573,235.54 459.05,236.087 457.565,235.794 L455.397,235.423 C454.187,235.228 452.995,234.466 452.39,233.373 C452.019,232.689 451.804,231.908 451.823,231.146 C451.022,231.83 450.28,232.552 449.597,233.314 C448.718,234.29 447.39,234.74 446.159,234.623 C446.022,234.642 445.866,234.662 445.72,234.662 L445.7,234.544 C445.358,234.466 445.026,234.339 444.714,234.173 L444.675,234.72 C443.376,234.73 442.106,234.173 441.315,233.119 C440.534,232.064 440.31,230.697 440.729,229.447 L441.062,228.47 z M446.784,480.111 C410.593,480.111 381.979,468.802 364.011,447.425 C346.667,426.79 340.251,397.435 345.964,364.74 C360.368,282.21 390.505,249.173 413.249,235.99 L413.405,236.253 C420.808,229.398 445.026,218.06 447.116,217.845 C448.522,217.728 449.802,218.275 450.642,219.33 C451.159,219.984 451.452,220.765 451.511,221.566 C453.894,220.16 456.511,218.978 459.343,218.04 C460.905,217.494 462.663,218.011 463.708,219.3 C464.079,219.759 464.343,220.277 464.479,220.824 C468.464,218.392 472.507,217.357 476.706,217.855 C478.054,218.021 479.216,218.841 479.812,220.052 C480.417,221.263 480.378,222.689 479.694,223.851 C479.675,223.861 477.858,227.142 476.452,234.027 C510.3,251.126 535.886,296.712 548.659,362.962 C554.968,395.697 548.991,425.267 531.843,446.224 C513.972,468.07 485.095,479.779 448.327,480.101 L446.784,480.111" fill="#1A1919"/>
    <path d="M480.544,343.919 C480.69,351.165 464.714,360.052 451.804,360.326 C438.874,360.58 422.663,352.123 422.517,344.876 C422.37,337.63 438.347,331.546 451.267,331.283 C464.187,331.019 480.397,336.673 480.544,343.919" fill="#C64E3D"/>
    <path d="M452.136,333.568 L451.315,333.568 C438.581,333.831 424.714,339.72 424.812,344.828 C424.909,350.033 439.108,358.04 451.237,358.04 L451.765,358.031 C457.507,357.914 464.304,355.931 469.948,352.748 C475.046,349.857 478.308,346.419 478.249,343.968 C478.151,339.007 464.489,333.568 452.136,333.568 z M451.237,362.611 C437.858,362.611 420.417,354.037 420.222,344.915 C420.046,335.443 438.151,329.251 451.218,328.998 L452.136,328.988 C464.567,328.988 482.644,334.29 482.839,343.88 C482.927,348.177 479.05,352.865 472.194,356.732 C465.925,360.287 458.317,362.474 451.853,362.611 L451.237,362.611" fill="#1A1919"/>
    <path d="M430.397,310.726 C429.304,325.716 416.257,336.966 401.276,335.873 C386.286,334.779 375.026,321.732 376.12,306.751 C377.224,291.771 390.261,280.501 405.241,281.595 C420.231,282.699 431.491,295.736 430.397,310.726" fill="#FFFFFE"/>
    <path d="M403.229,283.822 C390.261,283.822 379.362,293.968 378.405,306.927 C377.409,320.619 387.741,332.591 401.442,333.587 C415.153,334.564 427.116,324.115 428.112,310.56 C429.108,296.859 418.776,284.896 405.075,283.88 C404.46,283.841 403.845,283.822 403.229,283.822 z M403.288,338.236 C402.565,338.236 401.843,338.216 401.101,338.158 C384.89,336.966 372.653,322.806 373.835,306.585 C375.017,290.54 389.069,278.158 405.417,279.31 C421.628,280.501 433.864,294.671 432.683,310.892 C431.55,326.224 418.64,338.236 403.288,338.236" fill="#1A1919"/>
    <path d="M423.933,310.716 C423.21,320.687 414.538,328.177 404.567,327.455 C394.597,326.722 387.097,318.04 387.829,308.08 C388.562,298.109 397.233,290.619 407.204,291.341 C417.175,292.074 424.675,300.746 423.933,310.716" fill="#1A1919"/>
    <path d="M464.646,310.726 C465.729,325.716 478.776,336.966 493.757,335.873 C508.747,334.779 520.007,321.732 518.913,306.751 C517.819,291.771 504.772,280.501 489.792,281.595 C474.802,282.699 463.542,295.736 464.646,310.726" fill="#FFFFFE"/>
    <path d="M491.804,283.822 C491.188,283.822 490.573,283.841 489.958,283.88 C476.257,284.896 465.925,296.859 466.931,310.56 C467.917,324.115 479.909,334.583 493.601,333.587 C507.292,332.591 517.624,320.619 516.628,306.917 C515.681,293.968 504.772,283.822 491.804,283.822 z M491.745,338.236 C476.384,338.236 463.474,326.224 462.36,310.892 C461.179,294.671 473.405,280.501 489.626,279.31 C505.983,278.177 520.026,290.54 521.198,306.585 C522.38,322.806 510.144,336.966 493.933,338.158 C493.2,338.216 492.468,338.236 491.745,338.236" fill="#1A1919"/>
    <path d="M471.101,310.716 C471.823,320.687 480.495,328.177 490.476,327.455 C500.437,326.722 507.937,318.04 507.204,308.08 C506.472,298.109 497.8,290.619 487.839,291.341 C477.858,292.074 470.368,300.746 471.101,310.716" fill="#1A1919"/>
    <path d="M514.997,443.382 C511.765,443.382 508.933,441.673 507.038,439.876 C505.495,440.921 503.093,442.083 499.831,442.171 C493.298,442.455 486.315,438.441 478.874,430.521 C460.3,410.755 481.315,377.494 482.224,376.087 C482.897,375.023 484.323,374.71 485.388,375.394 C486.452,376.078 486.765,377.494 486.081,378.568 C485.876,378.88 466.081,410.218 482.214,427.386 C488.571,434.154 494.489,437.884 499.567,437.591 C503.444,437.533 505.427,435.306 505.515,435.218 C505.964,434.701 506.716,434.378 507.331,434.427 C508.024,434.456 508.679,434.789 509.089,435.345 C509.509,435.892 513.288,440.697 517.79,437.933 C523.405,434.496 525.026,428.451 525.036,428.382 C525.339,427.23 526.472,426.488 527.624,426.693 C530.466,427.162 536.677,427.201 537.78,424.33 C538.239,423.138 539.567,422.572 540.749,423.011 C541.921,423.47 542.517,424.789 542.058,425.97 C539.899,431.595 532.448,431.732 528.815,431.439 C527.741,434.056 525.241,438.744 520.183,441.849 C518.386,442.943 516.647,443.382 514.997,443.382" fill="#1A1919"/>
    <path d="M380.036,443.382 C378.386,443.382 376.647,442.943 374.851,441.849 C369.782,438.744 367.292,434.056 366.228,431.439 C362.575,431.732 355.124,431.595 352.976,425.97 C352.517,424.789 353.112,423.47 354.284,423.011 C355.476,422.572 356.794,423.138 357.253,424.33 C358.347,427.201 364.558,427.162 367.409,426.693 C368.562,426.517 369.694,427.24 370.007,428.373 C370.017,428.441 371.687,434.535 377.233,437.933 C381.735,440.677 385.515,435.892 385.944,435.345 C386.354,434.779 387.019,434.437 387.722,434.427 C388.522,434.32 389.089,434.701 389.538,435.238 C389.597,435.306 391.589,437.533 395.456,437.591 C400.417,437.826 406.452,434.154 412.819,427.386 C428.952,410.218 409.157,378.88 408.952,378.568 C408.269,377.494 408.581,376.078 409.636,375.394 C410.71,374.701 412.126,375.023 412.81,376.087 C413.718,377.494 434.743,410.755 416.159,430.521 C408.708,438.451 401.628,442.484 395.202,442.171 C391.94,442.083 389.528,440.921 387.995,439.876 C386.101,441.673 383.269,443.382 380.036,443.382" fill="#1A1919"/>
  </g>
</svg>
