<?xml version="1.0" encoding="UTF-8" standalone="no"?>
<svg
   xmlns:dc="http://purl.org/dc/elements/1.1/"
   xmlns:cc="http://creativecommons.org/ns#"
   xmlns:rdf="http://www.w3.org/1999/02/22-rdf-syntax-ns#"
   xmlns:svg="http://www.w3.org/2000/svg"
   xmlns="http://www.w3.org/2000/svg"
   xmlns:sodipodi="http://sodipodi.sourceforge.net/DTD/sodipodi-0.dtd"
   xmlns:inkscape="http://www.inkscape.org/namespaces/inkscape"
   id="svg2"
   viewBox="0 0 94.035105 133.63954"
   version="1.1"
   sodipodi:docname="1448224753.svg"
   width="94.035103"
   height="133.63954"
   inkscape:version="0.92.3 (2405546, 2018-03-11)">
  <defs
     id="defs24" />
  <sodipodi:namedview
     pagecolor="#ffffff"
     bordercolor="#666666"
     borderopacity="1"
     objecttolerance="10"
     gridtolerance="10"
     guidetolerance="10"
     inkscape:pageopacity="0"
     inkscape:pageshadow="2"
     inkscape:window-width="1918"
     inkscape:window-height="1060"
     id="namedview22"
     showgrid="false"
     fit-margin-top="0"
     fit-margin-left="0"
     fit-margin-right="0"
     fit-margin-bottom="0"
     inkscape:zoom="3.8615573"
     inkscape:cx="12.040993"
     inkscape:cy="107.0866"
     inkscape:window-x="0"
     inkscape:window-y="18"
     inkscape:window-maximized="1"
     inkscape:current-layer="svg2" />
  <metadata
     id="metadata19">
    <rdf:RDF>
      <cc:Work>
        <dc:format>image/svg+xml</dc:format>
        <dc:type
           rdf:resource="http://purl.org/dc/dcmitype/StillImage" />
        <cc:license
           rdf:resource="http://creativecommons.org/publicdomain/zero/1.0/" />
        <dc:publisher>
          <cc:Agent
             rdf:about="http://openclipart.org/">
            <dc:title>Openclipart</dc:title>
          </cc:Agent>
        </dc:publisher>
        <dc:title></dc:title>
        <dc:date>2013-08-26T01:45:39</dc:date>
        <dc:description>rabbit - line art</dc:description>
        <dc:source>https://openclipart.org/detail/182199/white-rabbit-by-stilg4r-182199</dc:source>
        <dc:creator>
          <cc:Agent>
            <dc:title>stilg4r</dc:title>
          </cc:Agent>
        </dc:creator>
        <dc:subject>
          <rdf:Bag>
            <rdf:li>animal</rdf:li>
            <rdf:li>line art</rdf:li>
            <rdf:li>nature</rdf:li>
            <rdf:li>rabbit</rdf:li>
          </rdf:Bag>
        </dc:subject>
      </cc:Work>
      <cc:License
         rdf:about="http://creativecommons.org/publicdomain/zero/1.0/">
        <cc:permits
           rdf:resource="http://creativecommons.org/ns#Reproduction" />
        <cc:permits
           rdf:resource="http://creativecommons.org/ns#Distribution" />
        <cc:permits
           rdf:resource="http://creativecommons.org/ns#DerivativeWorks" />
      </cc:License>
    </rdf:RDF>
  </metadata>
  <g
     id="g1986"
     transform="translate(0.15805404,-39.376542)">
    <path
       sodipodi:nodetypes="ccccc"
       style="fill:#82bdcf;fill-opacity:1;stroke:#000000;stroke-width:1.33333337;stroke-miterlimit:4;stroke-dasharray:none"
       inkscape:connector-curvature="0"
       d="m 40.477636,65.915476 c 0,0 6.999777,-7.12182 10.024242,-10.225943 5.147264,-5.839552 16.700347,-18.167237 24.10432,-15.189651 3.775092,1.709159 3.332865,6.636569 2.248023,9.873164 C 74.32292,57.92528 57.745833,68.69539 57.745833,68.69539"
       id="path3106" />
    <path
       sodipodi:nodetypes="cc"
       style="fill:#82bdcf;fill-opacity:1;stroke:#000000;stroke-width:1.69503319;stroke-miterlimit:4;stroke-dasharray:none"
       inkscape:connector-curvature="0"
       d="m 56.77023,136.69782 c 12.463629,-15.54653 37.20186,27.01413 -0.429931,23.49074"
       id="path3114" />
    <path
       sodipodi:nodetypes="ccccccccccccccc"
       style="fill:#82bdcf;fill-opacity:1;stroke:#000000;stroke-width:1.33333337;stroke-miterlimit:4;stroke-dasharray:none"
       inkscape:connector-curvature="0"
       d="M 65.478732,81.428606 C 110.10176,73.898853 96.338474,37.607665 56.287293,69.924967 27.14224,58.770296 13.391093,74.513266 22.141226,91.552089 c 1.001663,1.972153 1.457586,3.354411 -1.958282,3.601018 -6.170237,-1.755204 -14.4722602,1.221123 -14.5578416,7.586813 -0.5873404,5.14254 4.9622786,6.13232 8.4382336,8.47088 -10.5985777,7.59996 -23.3042584,34.48756 -2.051971,47.62357 -5.3163152,-1.95176 -13.6867139,4.16569 -8.1716702,8.1486 5.3730688,3.27229 11.9138282,-0.23327 17.6171502,0.84351 0.714785,5.28499 7.808445,4.78018 12.391282,4.11548 3.127954,-0.34837 3.831163,-1.7538 6.360138,-2.11266 37.462119,-5.31605 11.661588,-31.92653 14.396588,-46.13677 13.999311,-4.251 15.600133,-14.81197 4.731479,-24.329829 10.164364,-5.257673 6.442115,-17.427492 6.141679,-17.935029 z"
       id="path3099" />
    <path
       inkscape:connector-curvature="0"
       id="path4347"
       d="m 34.396205,106.94737 c -11.467266,-2.42384 -18.030183,6.25218 -22.205565,12.53174 -6.2993689,10.08757 -6.8727196,23.74396 2.018098,34.59429 10.446786,9.89399 20.994479,-1.32071 22.699525,-8.90113 3.341443,-10.01516 7.391581,-20.54662 4.442287,-31.52295 -0.924415,-2.75791 -3.259413,-5.6337 -6.954345,-6.70195 z"
       style="fill:#ffffff;fill-rule:evenodd;stroke:none;stroke-width:0.00513041;stroke-linecap:butt;stroke-linejoin:miter;stroke-miterlimit:4;stroke-dasharray:none;stroke-opacity:1" />
    <path
       style="fill:#ffffff;stroke:#000000;stroke-width:1.33333337;stroke-miterlimit:4;stroke-dasharray:none"
       inkscape:connector-curvature="0"
       d="m 54.81707,108.53736 c -10.055888,-3.78385 -19.526743,0.3352 -18.493662,6.44795 1.821786,10.78222 12.353179,9.47723 18.281445,8.70722"
       id="path3102" />
    <path
       style="fill:#ffffff;stroke:#000000;stroke-width:1.33333337;stroke-miterlimit:4;stroke-dasharray:none"
       inkscape:connector-curvature="0"
       d="m 22.212385,98.293103 c 0,0 11.722284,6.716617 6.064955,13.197177 -4.120357,4.72008 -14.214004,-0.27948 -14.214004,-0.27948"
       id="path3104" />
    <path
       style="fill:#ffffff;stroke:#000000;stroke-width:1.33333337;stroke-miterlimit:4;stroke-dasharray:none"
       inkscape:connector-curvature="0"
       d="m 12.011365,158.83437 12.722,6.4397"
       id="path3110" />
    <path
       style="fill:#82bdcf;fill-opacity:1;stroke:#000000;stroke-width:1.33333337;stroke-miterlimit:4;stroke-dasharray:none"
       inkscape:connector-curvature="0"
       d="m 21.456845,167.82648 c 2.6232,-12.979 12.983,-8.2512 19.393,-6.1697"
       id="path3112" />
    <path
       inkscape:connector-curvature="0"
       id="path4774"
       d="M 49.986333,75.011381 C 56.945368,74.964131 65.094725,81.89611 62.860436,89.357455 60.926901,96.844742 51.022602,100.54185 45.090882,95.21186 38.92038,91.588622 37.939296,82.537177 43.49316,77.874363 c 1.742373,-1.678289 4.069766,-2.757875 6.493173,-2.862982 z"
       style="fill:#ffffff;fill-rule:evenodd;stroke:none;stroke-width:0.00259272;stroke-linecap:butt;stroke-linejoin:miter;stroke-miterlimit:4;stroke-dasharray:none;stroke-opacity:1" />
    <g
       inkscape:transform-center-y="2.3490316"
       inkscape:transform-center-x="-1.5453401"
       transform="matrix(0.95119894,0.43802825,-0.55436608,1.2038319,45.327687,-26.225448)"
       id="g1728">
      <path
         inkscape:connector-curvature="0"
         id="path4202"
         d="m 30.002536,71.114731 c 2.999243,-1.799529 7.503903,1.51038 5.433976,4.85942 -1.168485,3.842025 -7.841662,2.851999 -7.225912,-1.349313 0.09516,-1.333999 0.630965,-2.754389 1.791936,-3.510107 z"
         style="fill:#000000;fill-rule:evenodd;stroke:none;stroke-width:0.00192519;stroke-linecap:butt;stroke-linejoin:miter;stroke-miterlimit:4;stroke-dasharray:none;stroke-opacity:1" />
      <path
         inkscape:connector-curvature="0"
         id="path4204"
         d="m 33.210917,73.957547 c 3.342151,-0.32411 -1.759244,2.341728 -0.8562,-0.214283 l 0.268081,0.0402 z"
         style="fill:#ffffff;fill-rule:evenodd;stroke:none;stroke-width:0.00192519;stroke-linecap:butt;stroke-linejoin:miter;stroke-miterlimit:4;stroke-dasharray:none;stroke-opacity:1" />
      <path
         inkscape:connector-curvature="0"
         id="path4206"
         d="m 33.053642,73.13629 c 3.850474,0.936287 0.668641,-3.224653 -1.201539,-1.22571 -0.582426,0.798461 0.662638,1.140558 1.201539,1.22571 z"
         style="fill:#ffffff;fill-rule:evenodd;stroke:none;stroke-width:0.00192519;stroke-linecap:butt;stroke-linejoin:miter;stroke-miterlimit:4;stroke-dasharray:none;stroke-opacity:1" />
      <path
         inkscape:connector-curvature="0"
         id="path4208"
         d="m 29.845267,76.200214 c 2.145324,2.112537 -2.221713,1.22663 0,0 z"
         style="fill:#ffffff;fill-rule:evenodd;stroke:none;stroke-width:0.00192519;stroke-linecap:butt;stroke-linejoin:miter;stroke-miterlimit:4;stroke-dasharray:none;stroke-opacity:1" />
    </g>
    <path
       inkscape:connector-curvature="0"
       id="path4776"
       d="m 67.660139,43.103206 c -6.025078,0.913737 -9.314844,8.824225 -1.787001,10.779991 6.828306,4.846117 14.360686,-7.596054 7.447098,-10.775006 -1.835976,-0.550768 -3.821465,-0.509497 -5.660097,-0.005 z"
       style="opacity:1;fill:#ffffff;fill-opacity:1;stroke:none;stroke-width:0.00418149;stroke-linecap:round;stroke-miterlimit:4;stroke-dasharray:none;stroke-opacity:1" />
    <path
       sodipodi:nodetypes="ccccccc"
       inkscape:connector-curvature="0"
       id="path4226"
       d="m 22.417538,166.77891 c 0.553955,-2.93624 5.495623,-7.7041 10.831362,-5.85175 4.142106,1.54041 6.295669,0.81528 9.346038,3.70781 1.218622,0.97573 2.430874,3.66145 2.61384,4.74298 0.200241,-3.16207 -1.050219,-5.29189 -5.377107,-7.63597 -3.66802,-2.3021 -9.908725,-3.93048 -12.717996,-2.72687 -2.234653,0.95114 -5.417524,5.24005 -4.696137,7.7638 z"
       style="opacity:0.5;fill:#000000;fill-rule:evenodd;stroke:#000000;stroke-width:0.00168888;stroke-linecap:butt;stroke-linejoin:miter;stroke-miterlimit:4;stroke-dasharray:none;stroke-opacity:1" />
    <g
       transform="matrix(0.19678203,0.21493537,-0.21493537,0.19678203,-11.930902,-8.8340296)"
       id="g1759">
      <path
         d="m 276.9434,138.331 c 32.05813,-19.27035 37.98672,-15.4489 59.84193,-23.68053 -21.6415,4.70129 -30.37967,5.80646 -56.97839,19.52871 -5.39181,2.78176 -7.86815,7.15916 -2.86305,4.15049 z"
         id="path3835"
         inkscape:connector-curvature="0"
         style="stroke-width:1.06666672" />
      <path
         inkscape:connector-curvature="0"
         id="path5315"
         d="m 285.53806,156.91935 c 29.52965,-28.34097 36.86783,-25.51717 58.24623,-39.48101 -22.04625,10.05989 -31.14942,13.25571 -56.22634,34.29524 -5.08332,4.26506 -6.63003,9.60905 -2.01973,5.18422 z"
         style="stroke-width:1.06666672" />
      <path
         d="m 298.2888,173.98626 c 21.47727,-33.94202 28.79566,-32.44743 45.66049,-50.4246 -18.2632,14.17103 -25.99668,19.0583 -44.84345,44.83509 -3.82037,5.22534 -4.17031,10.88721 -0.8172,5.58792 z"
         id="path5317"
         inkscape:connector-curvature="0"
         style="stroke-width:1.06666672" />
    </g>
    <g
       id="g1738"
       transform="matrix(0.95119894,0.43802825,-0.55436608,1.2038319,57.096893,-18.867863)"
       inkscape:transform-center-x="-1.5453385"
       inkscape:transform-center-y="2.3490309">
      <path
         style="fill:#000000;fill-rule:evenodd;stroke:none;stroke-width:0.00192519;stroke-linecap:butt;stroke-linejoin:miter;stroke-miterlimit:4;stroke-dasharray:none;stroke-opacity:1"
         d="m 30.002536,71.114731 c 2.999243,-1.799529 7.503903,1.51038 5.433976,4.85942 -1.168485,3.842025 -7.841662,2.851999 -7.225912,-1.349313 0.09516,-1.333999 0.630965,-2.754389 1.791936,-3.510107 z"
         id="path1730"
         inkscape:connector-curvature="0" />
      <path
         style="fill:#ffffff;fill-rule:evenodd;stroke:none;stroke-width:0.00192519;stroke-linecap:butt;stroke-linejoin:miter;stroke-miterlimit:4;stroke-dasharray:none;stroke-opacity:1"
         d="m 33.210917,73.957547 c 3.342151,-0.32411 -1.759244,2.341728 -0.8562,-0.214283 l 0.268081,0.0402 z"
         id="path1732"
         inkscape:connector-curvature="0" />
      <path
         style="fill:#ffffff;fill-rule:evenodd;stroke:none;stroke-width:0.00192519;stroke-linecap:butt;stroke-linejoin:miter;stroke-miterlimit:4;stroke-dasharray:none;stroke-opacity:1"
         d="m 33.053642,73.13629 c 3.850474,0.936287 0.668641,-3.224653 -1.201539,-1.22571 -0.582426,0.798461 0.662638,1.140558 1.201539,1.22571 z"
         id="path1734"
         inkscape:connector-curvature="0" />
      <path
         style="fill:#ffffff;fill-rule:evenodd;stroke:none;stroke-width:0.00192519;stroke-linecap:butt;stroke-linejoin:miter;stroke-miterlimit:4;stroke-dasharray:none;stroke-opacity:1"
         d="m 29.845267,76.200214 c 2.145324,2.112537 -2.221713,1.22663 0,0 z"
         id="path1736"
         inkscape:connector-curvature="0" />
    </g>
    <g
       transform="matrix(0.21679276,0.38233596,-0.38233596,0.21679276,-10.608782,-75.35856)"
       id="g1750">
      <path
         d="m 357.8259,101.10531 c -0.45084,11.47239 4.72759,14.87605 14.76176,11.89354 7.74963,-2.30375 6.79028,-8.57063 4.71965,-12.01816 -0.80361,-0.50331 4.3584,12.44016 17.5508,0.0578 5.11443,-5.95953 -1.64121,-17.280971 -6.87871,-16.786848"
         id="path4032"
         inkscape:connector-curvature="0"
         style="fill:none;stroke:#000000;stroke-width:0.96940285;stroke-linecap:round;stroke-miterlimit:4;stroke-dasharray:none" />
      <path
         d="m 377.61199,91.736036 c -1.9039,-0.381898 -7.9037,2.221259 -8.71626,4.065419 -1.20436,2.733419 5.73293,6.491965 7.87888,5.515755 2.18966,-0.99593 3.53367,-9.04047 0.83735,-9.581334 z"
         id="path4025"
         inkscape:connector-curvature="0"
         style="fill:#ffaaaa;stroke-width:1.06666672" />
      <path
         style="fill:none;stroke:#000000;stroke-width:0.96940285;stroke-linecap:round;stroke-miterlimit:4;stroke-dasharray:none"
         inkscape:connector-curvature="0"
         id="path1742"
         d="m 357.8259,101.10531 c -0.45084,11.47239 4.72759,14.87605 14.76176,11.89354 7.74963,-2.30375 6.79028,-8.57063 4.71965,-12.01816 -0.80361,-0.50331 4.3584,12.44016 17.5508,0.0578 5.11443,-5.95953 -1.64121,-17.280971 -6.87871,-16.786848" />
      <path
         style="fill:#ffaaaa;stroke-width:1.06666672"
         inkscape:connector-curvature="0"
         id="path1744"
         d="m 377.61199,91.736036 c -1.9039,-0.381898 -7.9037,2.221259 -8.71626,4.065419 -1.20436,2.733419 5.73293,6.491965 7.87888,5.515755 2.18966,-0.99593 3.53367,-9.04047 0.83735,-9.581334 z" />
    </g>
    <path
       style="opacity:0.5;fill:#000000;fill-rule:evenodd;stroke:#000000;stroke-width:0.00168888;stroke-linecap:butt;stroke-linejoin:miter;stroke-miterlimit:4;stroke-dasharray:none;stroke-opacity:1"
       d="m 2.2401382,166.13036 c 0.553955,-2.93624 5.0836156,-7.42943 10.4193548,-5.57708 4.142106,1.54041 6.387226,2.14286 9.437595,5.03539 1.218622,0.97573 -0.182966,-1.08153 0,0 0.200241,-3.16207 0.785385,-1.87649 -3.541503,-4.22057 -3.66802,-2.3021 -9.2220462,-3.93048 -12.0313172,-2.72687 -2.234653,0.95114 -5.0055166,4.96538 -4.2841296,7.48913 z"
       id="path1752"
       inkscape:connector-curvature="0"
       sodipodi:nodetypes="ccccccc" />
    <g
       id="g1767"
       transform="matrix(-0.29139753,0.00280322,0.00280322,0.29139753,138.18104,58.36633)">
      <path
         style="stroke-width:1.06666672"
         inkscape:connector-curvature="0"
         id="path1761"
         d="m 276.9434,138.331 c 32.05813,-19.27035 37.98672,-15.4489 59.84193,-23.68053 -21.6415,4.70129 -30.37967,5.80646 -56.97839,19.52871 -5.39181,2.78176 -7.86815,7.15916 -2.86305,4.15049 z" />
      <path
         style="stroke-width:1.06666672"
         d="m 285.53806,156.91935 c 29.52965,-28.34097 36.86783,-25.51717 58.24623,-39.48101 -22.04625,10.05989 -31.14942,13.25571 -56.22634,34.29524 -5.08332,4.26506 -6.63003,9.60905 -2.01973,5.18422 z"
         id="path1763"
         inkscape:connector-curvature="0" />
      <path
         style="stroke-width:1.06666672"
         inkscape:connector-curvature="0"
         id="path1765"
         d="m 298.2888,173.98626 c 21.47727,-33.94202 28.79566,-32.44743 45.66049,-50.4246 -18.2632,14.17103 -25.99668,19.0583 -44.84345,44.83509 -3.82037,5.22534 -4.17031,10.88721 -0.8172,5.58792 z" />
    </g>
    <path
       d="M 17.434684,78.097608 A 6.6184246,1.507161 27.359823 1 1 29.190831,84.180959 6.6184246,1.507161 27.359823 1 1 17.434684,78.097608 Z"
       id="path3849"
       inkscape:connector-curvature="0"
       style="fill:#ffd5d5;stroke-width:0.22833207" />
    <path
       style="fill:#ffd5d5;stroke-width:0.22833207"
       inkscape:connector-curvature="0"
       id="path1740"
       d="M 40.448282,90.791877 A 6.6184246,1.507161 36.494922 1 1 51.089511,98.664512 6.6184246,1.507161 36.494922 1 1 40.448282,90.791877 Z" />
    <path
       style="opacity:0.5;fill:#000000;fill-rule:evenodd;stroke:#000000;stroke-width:0.00217794;stroke-linecap:butt;stroke-linejoin:miter;stroke-miterlimit:4;stroke-dasharray:none;stroke-opacity:1"
       d="M 91.859027,60.576779 C 77.38279,53.170402 40.455304,82.084397 61.410584,66.576673 66.51659,62.159879 75.867905,57.826702 81.270158,57.104031 85.5648,56.524099 92.068535,58.098938 91.859027,60.576779 Z"
       id="path1769"
       inkscape:connector-curvature="0"
       sodipodi:nodetypes="cccc" />
    <path
       sodipodi:nodetypes="czc"
       inkscape:connector-curvature="0"
       id="path1944"
       d="M 64.133007,75.768846 C 65.720791,71.859342 83.421642,61.576854 87.370613,64.292629 91.319594,67.008405 76.430739,73.327843 64.133007,75.768846 Z"
       style="opacity:1;fill:#ffaaaa;fill-opacity:1;stroke:none;stroke-width:1.10447371;stroke-linecap:round;stroke-linejoin:miter;stroke-miterlimit:4;stroke-dasharray:none;stroke-opacity:1" />
  </g>
</svg>
